<svg width="20" height="20" viewBox="0 0 18 18" fill="none" xmlns="http://www.w3.org/2000/svg">
    <path fill="currentColor" fill-rule="evenodd" clip-rule="evenodd" d="M15.5 2C15.5 1.44772 15.0523 1 14.5 1C13.9477 1 13.5 1.44772 13.5 2V3.59604C12.427 2.71642 11.112 2.1701 9.71958 2.03367C8.10212 1.87518 6.47903 2.27946 5.12673 3.1784C3.77431 4.07743 2.776 5.41592 2.30317 6.96664C1.83031 8.51744 1.91262 10.1835 2.5359 11.6805C3.15913 13.1774 4.28429 14.4118 5.71845 15.1744C7.15252 15.937 8.80748 16.1811 10.4016 15.8657C11.9958 15.5502 13.4318 14.6944 14.4643 13.4427C15.2825 12.4509 15.8071 11.2592 15.9896 10.0007C16.0689 9.45416 15.6901 8.9468 15.1436 8.8675C14.597 8.78821 14.0897 9.167 14.0104 9.71357C13.8802 10.6109 13.506 11.4614 12.9215 12.17C12.1837 13.0644 11.1561 13.6776 10.0134 13.9037C8.87057 14.1299 7.68448 13.9547 6.65748 13.4086C5.63059 12.8625 4.82693 11.9798 4.38226 10.9117C3.93763 9.84381 3.87901 8.65586 4.21622 7.54995C4.55344 6.44396 5.26606 5.48736 6.23392 4.84398C7.20189 4.20052 8.36486 3.9105 9.52454 4.02413C10.3959 4.10951 11.2241 4.41871 11.931 4.91437L11.3356 5.01361C10.7908 5.1044 10.4228 5.61963 10.5136 6.1644C10.6044 6.70917 11.1196 7.07719 11.6644 6.98639L14.6644 6.48639C15.1466 6.40603 15.5 5.98884 15.5 5.5V2Z" />
</svg>
